<mxfile host="Electron" modified="2024-04-24T03:42:38.787Z" agent="Mozilla/5.0 (Windows NT 10.0; Win64; x64) AppleWebKit/537.36 (KHTML, like Gecko) draw.io/22.1.11 Chrome/114.0.5735.289 Electron/25.9.8 Safari/537.36" etag="hGtngWvwbC6EB0FO17El" version="22.1.11" type="device">
  <diagram name="Page-1" id="IBLMOxpzsWkNbzYrSu9t">
    <mxGraphModel dx="1036" dy="606" grid="1" gridSize="10" guides="1" tooltips="1" connect="1" arrows="1" fold="1" page="1" pageScale="1" pageWidth="850" pageHeight="1100" math="0" shadow="0">
      <root>
        <mxCell id="0" />
        <mxCell id="1" parent="0" />
        <mxCell id="rf21igJtvPjZSNDJGJjd-1" value="GameIQ" style="swimlane;fontStyle=0;childLayout=stackLayout;horizontal=1;startSize=30;horizontalStack=0;resizeParent=1;resizeParentMax=0;resizeLast=0;collapsible=1;marginBottom=0;whiteSpace=wrap;html=1;" parent="1" vertex="1">
          <mxGeometry x="10" y="20" width="140" height="300" as="geometry" />
        </mxCell>
        <mxCell id="rf21igJtvPjZSNDJGJjd-3" value="Id&lt;span style=&quot;white-space: pre;&quot;&gt;&#x9;&lt;/span&gt;" style="text;strokeColor=none;fillColor=none;align=left;verticalAlign=middle;spacingLeft=4;spacingRight=4;overflow=hidden;points=[[0,0.5],[1,0.5]];portConstraint=eastwest;rotatable=0;whiteSpace=wrap;html=1;" parent="rf21igJtvPjZSNDJGJjd-1" vertex="1">
          <mxGeometry y="30" width="140" height="30" as="geometry" />
        </mxCell>
        <mxCell id="rf21igJtvPjZSNDJGJjd-12" value="SubCategoryId" style="text;strokeColor=none;fillColor=none;align=left;verticalAlign=middle;spacingLeft=4;spacingRight=4;overflow=hidden;points=[[0,0.5],[1,0.5]];portConstraint=eastwest;rotatable=0;whiteSpace=wrap;html=1;" parent="rf21igJtvPjZSNDJGJjd-1" vertex="1">
          <mxGeometry y="60" width="140" height="30" as="geometry" />
        </mxCell>
        <mxCell id="rf21igJtvPjZSNDJGJjd-11" value="UserId" style="text;strokeColor=none;fillColor=none;align=left;verticalAlign=middle;spacingLeft=4;spacingRight=4;overflow=hidden;points=[[0,0.5],[1,0.5]];portConstraint=eastwest;rotatable=0;whiteSpace=wrap;html=1;" parent="rf21igJtvPjZSNDJGJjd-1" vertex="1">
          <mxGeometry y="90" width="140" height="30" as="geometry" />
        </mxCell>
        <mxCell id="rf21igJtvPjZSNDJGJjd-4" value="GameName" style="text;strokeColor=none;fillColor=none;align=left;verticalAlign=middle;spacingLeft=4;spacingRight=4;overflow=hidden;points=[[0,0.5],[1,0.5]];portConstraint=eastwest;rotatable=0;whiteSpace=wrap;html=1;" parent="rf21igJtvPjZSNDJGJjd-1" vertex="1">
          <mxGeometry y="120" width="140" height="30" as="geometry" />
        </mxCell>
        <mxCell id="rf21igJtvPjZSNDJGJjd-5" value="Title" style="text;strokeColor=none;fillColor=none;align=left;verticalAlign=middle;spacingLeft=4;spacingRight=4;overflow=hidden;points=[[0,0.5],[1,0.5]];portConstraint=eastwest;rotatable=0;whiteSpace=wrap;html=1;" parent="rf21igJtvPjZSNDJGJjd-1" vertex="1">
          <mxGeometry y="150" width="140" height="30" as="geometry" />
        </mxCell>
        <mxCell id="rf21igJtvPjZSNDJGJjd-6" value="Qestion" style="text;strokeColor=none;fillColor=none;align=left;verticalAlign=middle;spacingLeft=4;spacingRight=4;overflow=hidden;points=[[0,0.5],[1,0.5]];portConstraint=eastwest;rotatable=0;whiteSpace=wrap;html=1;" parent="rf21igJtvPjZSNDJGJjd-1" vertex="1">
          <mxGeometry y="180" width="140" height="30" as="geometry" />
        </mxCell>
        <mxCell id="rf21igJtvPjZSNDJGJjd-13" value="Image" style="text;strokeColor=none;fillColor=none;align=left;verticalAlign=middle;spacingLeft=4;spacingRight=4;overflow=hidden;points=[[0,0.5],[1,0.5]];portConstraint=eastwest;rotatable=0;whiteSpace=wrap;html=1;" parent="rf21igJtvPjZSNDJGJjd-1" vertex="1">
          <mxGeometry y="210" width="140" height="30" as="geometry" />
        </mxCell>
        <mxCell id="rf21igJtvPjZSNDJGJjd-7" value="Options" style="text;strokeColor=none;fillColor=none;align=left;verticalAlign=middle;spacingLeft=4;spacingRight=4;overflow=hidden;points=[[0,0.5],[1,0.5]];portConstraint=eastwest;rotatable=0;whiteSpace=wrap;html=1;" parent="rf21igJtvPjZSNDJGJjd-1" vertex="1">
          <mxGeometry y="240" width="140" height="30" as="geometry" />
        </mxCell>
        <mxCell id="rf21igJtvPjZSNDJGJjd-8" value="CorrectAnswer" style="text;strokeColor=none;fillColor=none;align=left;verticalAlign=middle;spacingLeft=4;spacingRight=4;overflow=hidden;points=[[0,0.5],[1,0.5]];portConstraint=eastwest;rotatable=0;whiteSpace=wrap;html=1;" parent="rf21igJtvPjZSNDJGJjd-1" vertex="1">
          <mxGeometry y="270" width="140" height="30" as="geometry" />
        </mxCell>
        <mxCell id="xsunCdfXdYpRt185z07V-1" value="Categories" style="swimlane;fontStyle=0;childLayout=stackLayout;horizontal=1;startSize=30;horizontalStack=0;resizeParent=1;resizeParentMax=0;resizeLast=0;collapsible=1;marginBottom=0;whiteSpace=wrap;html=1;" parent="1" vertex="1">
          <mxGeometry x="380" y="20" width="140" height="150" as="geometry" />
        </mxCell>
        <mxCell id="xsunCdfXdYpRt185z07V-2" value="Id" style="text;strokeColor=none;fillColor=none;align=left;verticalAlign=middle;spacingLeft=4;spacingRight=4;overflow=hidden;points=[[0,0.5],[1,0.5]];portConstraint=eastwest;rotatable=0;whiteSpace=wrap;html=1;" parent="xsunCdfXdYpRt185z07V-1" vertex="1">
          <mxGeometry y="30" width="140" height="30" as="geometry" />
        </mxCell>
        <mxCell id="xsunCdfXdYpRt185z07V-3" value="CategoryName" style="text;strokeColor=none;fillColor=none;align=left;verticalAlign=middle;spacingLeft=4;spacingRight=4;overflow=hidden;points=[[0,0.5],[1,0.5]];portConstraint=eastwest;rotatable=0;whiteSpace=wrap;html=1;" parent="xsunCdfXdYpRt185z07V-1" vertex="1">
          <mxGeometry y="60" width="140" height="30" as="geometry" />
        </mxCell>
        <mxCell id="xsunCdfXdYpRt185z07V-4" value="Image" style="text;strokeColor=none;fillColor=none;align=left;verticalAlign=middle;spacingLeft=4;spacingRight=4;overflow=hidden;points=[[0,0.5],[1,0.5]];portConstraint=eastwest;rotatable=0;whiteSpace=wrap;html=1;" parent="xsunCdfXdYpRt185z07V-1" vertex="1">
          <mxGeometry y="90" width="140" height="30" as="geometry" />
        </mxCell>
        <mxCell id="xsunCdfXdYpRt185z07V-9" value="Description" style="text;strokeColor=none;fillColor=none;align=left;verticalAlign=middle;spacingLeft=4;spacingRight=4;overflow=hidden;points=[[0,0.5],[1,0.5]];portConstraint=eastwest;rotatable=0;whiteSpace=wrap;html=1;" parent="xsunCdfXdYpRt185z07V-1" vertex="1">
          <mxGeometry y="120" width="140" height="30" as="geometry" />
        </mxCell>
        <mxCell id="xsunCdfXdYpRt185z07V-10" value="sub_categories" style="swimlane;fontStyle=0;childLayout=stackLayout;horizontal=1;startSize=30;horizontalStack=0;resizeParent=1;resizeParentMax=0;resizeLast=0;collapsible=1;marginBottom=0;whiteSpace=wrap;html=1;" parent="1" vertex="1">
          <mxGeometry x="200" y="20" width="140" height="180" as="geometry" />
        </mxCell>
        <mxCell id="xsunCdfXdYpRt185z07V-11" value="Id" style="text;strokeColor=none;fillColor=none;align=left;verticalAlign=middle;spacingLeft=4;spacingRight=4;overflow=hidden;points=[[0,0.5],[1,0.5]];portConstraint=eastwest;rotatable=0;whiteSpace=wrap;html=1;" parent="xsunCdfXdYpRt185z07V-10" vertex="1">
          <mxGeometry y="30" width="140" height="30" as="geometry" />
        </mxCell>
        <mxCell id="xsunCdfXdYpRt185z07V-12" value="categoryId" style="text;strokeColor=none;fillColor=none;align=left;verticalAlign=middle;spacingLeft=4;spacingRight=4;overflow=hidden;points=[[0,0.5],[1,0.5]];portConstraint=eastwest;rotatable=0;whiteSpace=wrap;html=1;" parent="xsunCdfXdYpRt185z07V-10" vertex="1">
          <mxGeometry y="60" width="140" height="30" as="geometry" />
        </mxCell>
        <mxCell id="xsunCdfXdYpRt185z07V-15" value="SubCategoryName" style="text;strokeColor=none;fillColor=none;align=left;verticalAlign=middle;spacingLeft=4;spacingRight=4;overflow=hidden;points=[[0,0.5],[1,0.5]];portConstraint=eastwest;rotatable=0;whiteSpace=wrap;html=1;" parent="xsunCdfXdYpRt185z07V-10" vertex="1">
          <mxGeometry y="90" width="140" height="30" as="geometry" />
        </mxCell>
        <mxCell id="xsunCdfXdYpRt185z07V-13" value="Image" style="text;strokeColor=none;fillColor=none;align=left;verticalAlign=middle;spacingLeft=4;spacingRight=4;overflow=hidden;points=[[0,0.5],[1,0.5]];portConstraint=eastwest;rotatable=0;whiteSpace=wrap;html=1;" parent="xsunCdfXdYpRt185z07V-10" vertex="1">
          <mxGeometry y="120" width="140" height="30" as="geometry" />
        </mxCell>
        <mxCell id="xsunCdfXdYpRt185z07V-14" value="Description" style="text;strokeColor=none;fillColor=none;align=left;verticalAlign=middle;spacingLeft=4;spacingRight=4;overflow=hidden;points=[[0,0.5],[1,0.5]];portConstraint=eastwest;rotatable=0;whiteSpace=wrap;html=1;" parent="xsunCdfXdYpRt185z07V-10" vertex="1">
          <mxGeometry y="150" width="140" height="30" as="geometry" />
        </mxCell>
        <mxCell id="xsunCdfXdYpRt185z07V-17" style="edgeStyle=orthogonalEdgeStyle;rounded=0;orthogonalLoop=1;jettySize=auto;html=1;exitX=1;exitY=0.5;exitDx=0;exitDy=0;entryX=0;entryY=0.5;entryDx=0;entryDy=0;" parent="1" source="rf21igJtvPjZSNDJGJjd-12" target="xsunCdfXdYpRt185z07V-11" edge="1">
          <mxGeometry relative="1" as="geometry" />
        </mxCell>
        <mxCell id="xsunCdfXdYpRt185z07V-18" style="edgeStyle=orthogonalEdgeStyle;rounded=0;orthogonalLoop=1;jettySize=auto;html=1;entryX=0;entryY=0.5;entryDx=0;entryDy=0;" parent="1" source="xsunCdfXdYpRt185z07V-12" target="xsunCdfXdYpRt185z07V-2" edge="1">
          <mxGeometry relative="1" as="geometry" />
        </mxCell>
      </root>
    </mxGraphModel>
  </diagram>
</mxfile>
